<svg xmlns="http://www.w3.org/2000/svg"><symbol id="mecha-stilts" viewBox="0 0 265 265"><path d="M143.3 161.9H164v13.04h-20.7zm-17.4 0h13.2v13.04h-13.2zm-42.2 0h13.2v13.04H83.7zm84.4 0h13.2v13.04h-13.2zm-67.1 0h20.7v13.04H101z"/><path d="M132.5 6.5l-109.1 63v126l109.1 63 109.1-63v-126zm65.4 153.3a1.9 1.9 0 0 1-2.1 2.1h-10.3v13h10.3a2.1 2.1 0 0 1 0 4.2H69.2a2.1 2.1 0 0 1 0-4.2h10.3v-13H69.2a1.9 1.9 0 0 1-2.1-2.1V119a1.9 1.9 0 0 1 2.1-2h13.6c1.1-29.4 23-45.6 49.7-45.6s48.6 16.2 49.7 45.6h13.6a1.9 1.9 0 0 1 2.1 2z"/><path d="M71.2 157.7h122.6v-36.6H71.2zm60.3-14H182a2.1 2.1 0 0 1 0 4.1h-50.5a2.1 2.1 0 1 1 0-4.1zm1-68.1C108.3 75.6 88 90.3 87 117h91c-1-26.7-21.3-41.4-45.5-41.4z"/></symbol><symbol id="super-domes" viewBox="0 0 265 265"><path d="M134.6 86.1v46.2h57.1a61.6 61.6 0 0 0-57.1-46.2zm-59.8 65.8h55.7v22.97H74.8zm53.6-65.6c-26.5 1.7-48.7 20.9-55.1 46h22.2zm6.2 65.6h9.3v22.97h-9.3zm-4.2-19.6V90.5l-29.8 41.8h29.8z"/><path d="M132.5 6.5l-109.1 63v126l109.1 63 109.1-63v-126zm89.2 145.4h-27.3V177a2.1 2.1 0 0 1-2.1 2.1H72.7a2 2 0 0 1-2.1-2.1v-25.1H43.3a2.1 2.1 0 1 1 0-4.1h15.5v-13.4a2 2 0 0 1 2.1-2.1H69A65.6 65.6 0 0 1 132.3 82c.2-.2.4-.2.8 0a65.3 65.3 0 0 1 62.9 50.3h8.1a2 2 0 0 1 2.1 2.1v13.4h15.5a2.1 2.1 0 1 1 0 4.1z"/><path d="M63 136.4h139.1v11.38H63zm85 15.5h42.2v22.97H148z"/></symbol><symbol id="space-bubbles" viewBox="0 0 265 265"><path d="M77 139.1h113.2v10.76H77zm25.3 14.9H88.6l-18.2 21.5 2.9 4.2 35-18.4-6-7.3zm73.7-19a52 52 0 0 0 2.4-15.7 44.8 44.8 0 0 0-89.6 0c0 5.3.4 10.9 2.5 15.7z"/><path d="M132.5 6.5l-109.1 63v126l109.1 63 109.1-63v-126zm66.2 170.3l-4.7 6.8a2.3 2.3 0 0 1-2.7.6l-10-5.1H83.5l-10 5.1a2.4 2.4 0 0 1-2.7-.6l-4.7-6.8a2.3 2.3 0 0 1 .2-2.5L83.5 154H75a1.9 1.9 0 0 1-2.1-2.1V137a1.9 1.9 0 0 1 2.1-2h12a56.3 56.3 0 0 1-2.3-15.7 49.1 49.1 0 0 1 49-48.9c26.7 0 48.9 22.2 48.9 48.9a49.8 49.8 0 0 1-2.3 15.7h12a2 2 0 0 1 2.1 2v14.9a2 2 0 0 1-2.1 2.1h-10.6l17 20.3a2.3 2.3 0 0 1 0 2.5z"/><path d="M91.5 174.9h28.2l-8.5-10.3-19.7 10.3zm16.2-20.9l17.3 20.9h14.9l17.4-20.9h-49.6zm55 0l-6.2 7.3 35.2 18.4 2.9-4-18.2-21.7h-13.7zm-17.4 20.9h28.2l-19.7-10.3-8.5 10.3z"/></symbol></svg>